<svg width="44" height="36" viewBox="0 0 44 36" fill="none" xmlns="http://www.w3.org/2000/svg">
<rect x="0.5" y="0.5" width="43" height="35" rx="17.5" stroke="white" stroke-opacity="0.3"/>
<path d="M29.5 14.4583H14.5C14.1583 14.4583 13.875 14.175 13.875 13.8333C13.875 13.4917 14.1583 13.2083 14.5 13.2083H29.5C29.8417 13.2083 30.125 13.4917 30.125 13.8333C30.125 14.175 29.8417 14.4583 29.5 14.4583Z" fill="white"/>
<path d="M29.5 18.625H14.5C14.1583 18.625 13.875 18.3417 13.875 18C13.875 17.6583 14.1583 17.375 14.5 17.375H29.5C29.8417 17.375 30.125 17.6583 30.125 18C30.125 18.3417 29.8417 18.625 29.5 18.625Z" fill="white"/>
<path d="M29.5 22.7917H14.5C14.1583 22.7917 13.875 22.5083 13.875 22.1667C13.875 21.825 14.1583 21.5417 14.5 21.5417H29.5C29.8417 21.5417 30.125 21.825 30.125 22.1667C30.125 22.5083 29.8417 22.7917 29.5 22.7917Z" fill="white"/>
</svg>
