<svg width="66" height="71" viewBox="0 0 66 71" fill="none" xmlns="http://www.w3.org/2000/svg">
<path d="M13.3041 0H15.1179C15.4637 3.38633e-07 15.7954 0.137391 16.04 0.381947L28.5527 12.8944C28.7973 13.139 28.9347 13.4707 28.9347 13.8165C28.9347 14.1624 28.7973 14.4941 28.5527 14.7387L14.2263 29.0649C14.0439 29.2473 13.8115 29.3715 13.5586 29.4218C13.3056 29.4722 13.0434 29.4463 12.805 29.3476C12.5667 29.2489 12.3631 29.0818 12.2198 28.8673C12.0765 28.6528 12 28.4007 12 28.1427V1.30412C12 0.958246 12.1374 0.626538 12.382 0.381968C12.6265 0.137398 12.9582 0 13.3041 0Z" fill="#00707B"/>
<path d="M28.6635 43.5021L42.9897 29.1759C43.2343 28.9314 43.566 28.794 43.9118 28.794C44.2577 28.794 44.5894 28.9314 44.834 29.1759L57.3464 41.6884C57.4675 41.8095 57.5636 41.9533 57.6291 42.1115C57.6947 42.2697 57.7284 42.4393 57.7284 42.6106V44.4243C57.7284 44.7701 57.591 45.1019 57.3464 45.3464C57.1018 45.591 56.7701 45.7284 56.4243 45.7284H29.5857C29.3277 45.7284 29.0756 45.6519 28.8611 45.5086C28.6466 45.3653 28.4795 45.1616 28.3808 44.9233C28.2821 44.685 28.2562 44.4228 28.3066 44.1698C28.3569 43.9169 28.4811 43.6845 28.6635 43.5021Z" fill="#00707B"/>
<path d="M12 46.4243V41.3944C12.0001 41.0632 12.1318 40.7456 12.3661 40.5115L34.2809 18.5967C34.6459 18.2317 34.9355 17.7984 35.133 17.3214C35.3306 16.8445 35.4323 16.3333 35.4323 15.8171C35.4323 15.3008 35.3306 14.7897 35.133 14.3127C34.9355 13.8358 34.6459 13.4025 34.2809 13.0374L25.3761 4.1319C25.2015 3.95721 25.0827 3.73468 25.0345 3.49244C24.9864 3.25021 25.0111 2.99913 25.1057 2.77096C25.2002 2.54279 25.3602 2.34777 25.5656 2.21054C25.7709 2.07331 26.0123 2.00005 26.2593 2H34.5402C34.8714 2.00014 35.189 2.13182 35.4231 2.36608L57.3623 24.3053C57.5966 24.5395 57.7282 24.857 57.7284 25.1882V33.4688C57.7283 33.7158 57.655 33.9572 57.5177 34.1625C57.3805 34.3678 57.1855 34.5278 56.9573 34.6223C56.7291 34.7168 56.4781 34.7415 56.2359 34.6933C55.9937 34.6452 55.7712 34.5263 55.5965 34.3518L45.8083 24.5644C45.5593 24.3153 45.2636 24.1177 44.9382 23.9829C44.6128 23.8481 44.2641 23.7788 43.9118 23.7788C43.5596 23.7788 43.2109 23.8481 42.8855 23.9829C42.56 24.1177 42.2644 24.3153 42.0154 24.5644L19.2172 47.3626C18.983 47.5969 18.6655 47.7285 18.3343 47.7287H13.3041C13.1328 47.7287 12.9632 47.6949 12.805 47.6294C12.6467 47.5638 12.503 47.4677 12.3819 47.3466C12.2608 47.2255 12.1647 47.0817 12.0992 46.9234C12.0337 46.7652 12 46.5956 12 46.4243Z" fill="#00707B"/>
<path d="M44.689 0H56.4242C56.77 0 57.1018 0.137398 57.3463 0.381968C57.5909 0.626538 57.7283 0.958246 57.7283 1.30412V13.0392C57.7283 13.3136 57.6469 13.5819 57.4944 13.8101C57.342 14.0383 57.1252 14.2161 56.8717 14.3212C56.6182 14.4262 56.3392 14.4537 56.07 14.4001C55.8008 14.3466 55.5536 14.2144 55.3595 14.0204L43.7079 2.36878C43.5139 2.17472 43.3817 1.92748 43.3282 1.65832C43.2746 1.38916 43.3021 1.11017 43.4071 0.856624C43.5121 0.603077 43.69 0.386364 43.9182 0.233887C44.1463 0.0814094 44.4146 1.65012e-05 44.689 0Z" fill="#00707B"/>
<path d="M21.2801 52.0002H12.954C12.8288 52.0002 12.7047 52.0249 12.5889 52.0728C12.4732 52.1208 12.368 52.1911 12.2794 52.2797C12.1908 52.3682 12.1206 52.4734 12.0726 52.5892C12.0247 52.7049 12 52.829 12 52.9543C12 53.0795 12.0247 53.2036 12.0726 53.3194C12.1206 53.4351 12.1908 53.5403 12.2794 53.6289C12.368 53.7175 12.4732 53.7877 12.5889 53.8357C12.7047 53.8836 12.8288 53.9083 12.954 53.9083H16.163V61.2802C16.163 61.5332 16.2635 61.7759 16.4425 61.9548C16.6214 62.1338 16.864 62.2343 17.1171 62.2343C17.3701 62.2343 17.6128 62.1338 17.7917 61.9548C17.9706 61.7759 18.0711 61.5332 18.0711 61.2802V53.9083H21.2797C21.405 53.9083 21.5291 53.8836 21.6448 53.8357C21.7606 53.7877 21.8657 53.7175 21.9543 53.6289C22.0429 53.5403 22.1132 53.4351 22.1611 53.3194C22.2091 53.2036 22.2338 53.0795 22.2338 52.9543C22.2338 52.829 22.2091 52.7049 22.1611 52.5892C22.1132 52.4734 22.0429 52.3682 21.9543 52.2797C21.8657 52.1911 21.7606 52.1208 21.6448 52.0728C21.5291 52.0249 21.4054 52.0002 21.2801 52.0002Z" fill="#00707B"/>
<path d="M56.4934 62.2345C56.6559 62.2342 56.8156 62.1924 56.9575 62.1131C57.0993 62.0338 57.2186 61.9196 57.304 61.7813C57.3893 61.6431 57.438 61.4853 57.4453 61.3229C57.4527 61.1606 57.4185 60.9991 57.3459 60.8536L53.1826 52.5275C53.1034 52.3691 52.9816 52.2358 52.8309 52.1426C52.6801 52.0495 52.5065 52.0001 52.3293 52.0001C52.1521 52.0001 51.9784 52.0495 51.8277 52.1426C51.677 52.2358 51.5552 52.3691 51.476 52.5275L47.3126 60.8536C47.2399 60.9991 47.2056 61.1607 47.2129 61.3232C47.2202 61.4856 47.2689 61.6435 47.3544 61.7819C47.4399 61.9202 47.5593 62.0344 47.7014 62.1136C47.8434 62.1927 48.0034 62.2343 48.166 62.2343H52.8154C52.9414 62.2354 53.0663 62.2115 53.183 62.164C53.2997 62.1166 53.4059 62.0465 53.4953 61.9578C53.5848 61.8691 53.6558 61.7636 53.7043 61.6473C53.7528 61.531 53.7777 61.4063 53.7777 61.2803C53.7777 61.1543 53.7528 61.0296 53.7043 60.9133C53.6558 60.797 53.5848 60.6914 53.4953 60.6027C53.4059 60.514 53.2997 60.4439 53.183 60.3965C53.0663 60.349 52.9414 60.3252 52.8154 60.3263H49.7102L52.3294 55.0875L55.6392 61.7069C55.7185 61.8655 55.8404 61.999 55.9913 62.0921C56.1422 62.1853 56.316 62.2346 56.4934 62.2345Z" fill="#00707B"/>
<path d="M31.515 62.2345C31.6776 62.2342 31.8373 62.1924 31.9792 62.1131C32.121 62.0339 32.2403 61.9197 32.3257 61.7814C32.4111 61.6431 32.4597 61.4853 32.4671 61.323C32.4744 61.1606 32.4402 60.9991 32.3677 60.8536L28.2043 52.5275C28.1251 52.3691 28.0033 52.2358 27.8526 52.1426C27.7019 52.0495 27.5282 52.0001 27.351 52.0001C27.1738 52.0001 27.0002 52.0495 26.8494 52.1426C26.6987 52.2358 26.5769 52.3691 26.4977 52.5275L22.3344 60.8536C22.2616 60.9991 22.2273 61.1607 22.2346 61.3232C22.2419 61.4856 22.2906 61.6435 22.3761 61.7819C22.4616 61.9202 22.5811 62.0344 22.7231 62.1136C22.8652 62.1927 23.0251 62.2343 23.1877 62.2343H27.8371C27.9631 62.2354 28.088 62.2115 28.2047 62.164C28.3215 62.1166 28.4276 62.0465 28.5171 61.9578C28.6065 61.8691 28.6776 61.7636 28.726 61.6473C28.7745 61.531 28.7994 61.4063 28.7994 61.2803C28.7994 61.1543 28.7745 61.0296 28.726 60.9133C28.6776 60.797 28.6065 60.6914 28.5171 60.6027C28.4276 60.514 28.3215 60.4439 28.2047 60.3965C28.088 60.349 27.9631 60.3252 27.8371 60.3263H24.7319L27.3513 55.0875L30.661 61.7069C30.7403 61.8655 30.8622 61.9989 31.013 62.0921C31.1639 62.1853 31.3377 62.2346 31.515 62.2345Z" fill="#00707B"/>
<path d="M44.0038 62.2343C43.8785 62.2344 43.7544 62.2097 43.6387 62.1617C43.5229 62.1138 43.4177 62.0435 43.3291 61.9548L36.6319 55.2577V61.2801C36.633 61.4061 36.6091 61.531 36.5617 61.6477C36.5142 61.7644 36.4441 61.8706 36.3554 61.96C36.2668 62.0495 36.1612 62.1205 36.0449 62.169C35.9286 62.2175 35.8039 62.2424 35.6779 62.2424C35.5519 62.2424 35.4272 62.2175 35.3109 62.169C35.1946 62.1205 35.0891 62.0495 35.0004 61.96C34.9117 61.8706 34.8416 61.7644 34.7941 61.6477C34.7467 61.531 34.7228 61.4061 34.7239 61.2801V52.9542C34.7239 52.7655 34.7798 52.581 34.8846 52.4241C34.9894 52.2672 35.1384 52.1449 35.3127 52.0726C35.4871 52.0004 35.6789 51.9815 35.864 52.0183C36.0491 52.0551 36.2191 52.146 36.3525 52.2795L43.0497 58.9766V52.9542C43.0497 52.7012 43.1502 52.4585 43.3291 52.2796C43.508 52.1007 43.7507 52.0002 44.0037 52.0002C44.2567 52.0002 44.4994 52.1007 44.6783 52.2796C44.8572 52.4585 44.9577 52.7012 44.9577 52.9542V61.2802C44.9577 61.5332 44.8573 61.7759 44.6784 61.9548C44.4995 62.1337 44.2568 62.2343 44.0038 62.2343Z" fill="#00707B"/>
</svg>
